<svg xmlns="http://www.w3.org/2000/svg" xmlns:xlink="http://www.w3.org/1999/xlink" width="500" zoomAndPan="magnify" viewBox="0 0 375 374.999991" height="500" preserveAspectRatio="xMidYMid meet" version="1.0"><defs><clipPath id="05664d7a39"><path d="M 18.628906 18.628906 L 356.128906 18.628906 L 356.128906 356.128906 L 18.628906 356.128906 Z M 18.628906 18.628906 " clip-rule="nonzero"/></clipPath><clipPath id="04cf1cdd44"><path d="M 82.277344 111.730469 L 148.882812 111.730469 L 148.882812 129.828125 L 82.277344 129.828125 Z M 82.277344 111.730469 " clip-rule="nonzero"/></clipPath><clipPath id="a564a40443"><path d="M 93.527344 97.230469 L 130.433594 97.230469 L 130.433594 113.53125 L 93.527344 113.53125 Z M 93.527344 97.230469 " clip-rule="nonzero"/></clipPath><clipPath id="b5f984c247"><path d="M 105.976562 80.929688 L 130.433594 80.929688 L 130.433594 97.230469 L 105.976562 97.230469 Z M 105.976562 80.929688 " clip-rule="nonzero"/></clipPath><clipPath id="eca7ace4ef"><path d="M 113.777344 75.128906 L 148.882812 75.128906 L 148.882812 80.929688 L 113.777344 80.929688 Z M 113.777344 75.128906 " clip-rule="nonzero"/></clipPath><clipPath id="d280b003c0"><path d="M 120.226562 72.40625 L 148.882812 72.40625 L 148.882812 76.15625 L 120.226562 76.15625 Z M 120.226562 72.40625 " clip-rule="nonzero"/></clipPath><clipPath id="c5dc6c9471"><path d="M 126.675781 68.992188 L 148.882812 68.992188 L 148.882812 73.765625 L 126.675781 73.765625 Z M 126.675781 68.992188 " clip-rule="nonzero"/></clipPath><clipPath id="65d2897c76"><path d="M 133.128906 65.242188 L 148.882812 65.242188 L 148.882812 81.890625 L 133.128906 81.890625 Z M 133.128906 65.242188 " clip-rule="nonzero"/></clipPath><clipPath id="6d58ef4e72"><path d="M 113 72 L 139 72 L 139 103 L 113 103 Z M 113 72 " clip-rule="nonzero"/></clipPath><clipPath id="7fd2ffce98"><path d="M 110.644531 96.398438 L 123.582031 68.824219 L 140.621094 76.816406 L 127.683594 104.394531 Z M 110.644531 96.398438 " clip-rule="nonzero"/></clipPath><clipPath id="0459ed7c2e"><path d="M 132.40625 72.972656 L 135.421875 74.386719 C 137.101562 75.175781 138.296875 76.726562 138.628906 78.550781 C 138.964844 80.378906 138.394531 82.253906 137.101562 83.585938 C 133.464844 87.328125 131.1875 92.179688 130.632812 97.367188 C 130.433594 99.214844 129.355469 100.847656 127.738281 101.761719 C 126.121094 102.671875 124.164062 102.742188 122.484375 101.953125 L 119.46875 100.539062 C 117.128906 99.441406 115.320312 97.457031 114.441406 95.027344 C 113.5625 92.59375 113.6875 89.910156 114.785156 87.570312 L 119.4375 77.65625 C 120.535156 75.316406 122.519531 73.507812 124.953125 72.628906 C 127.382812 71.75 130.066406 71.875 132.40625 72.972656 Z M 132.40625 72.972656 " clip-rule="nonzero"/></clipPath><clipPath id="a5b76d7a2b"><path d="M 118 66 L 149 66 L 149 94 L 118 94 Z M 118 66 " clip-rule="nonzero"/></clipPath><clipPath id="ad511c6b94"><path d="M 114.597656 80.007812 L 139.417969 62.351562 L 150.328125 77.6875 L 125.503906 95.34375 Z M 114.597656 80.007812 " clip-rule="nonzero"/></clipPath><clipPath id="064a6c723a"><path d="M 145.0625 70.300781 L 146.992188 73.015625 C 148.070312 74.527344 148.347656 76.464844 147.738281 78.21875 C 147.132812 79.972656 145.714844 81.328125 143.933594 81.851562 C 138.929688 83.324219 134.5625 86.429688 131.527344 90.675781 C 130.449219 92.183594 128.703125 93.082031 126.847656 93.078125 C 124.992188 93.078125 123.253906 92.175781 122.175781 90.664062 L 120.246094 87.953125 C 118.75 85.84375 118.148438 83.226562 118.578125 80.679688 C 119.007812 78.128906 120.433594 75.855469 122.542969 74.355469 L 131.464844 68.007812 C 133.574219 66.507812 136.191406 65.910156 138.738281 66.339844 C 141.289062 66.769531 143.5625 68.195312 145.0625 70.300781 Z M 145.0625 70.300781 " clip-rule="nonzero"/></clipPath><clipPath id="8aa89f5b05"><path d="M 113 91 L 139 91 L 139 123 L 113 123 Z M 113 91 " clip-rule="nonzero"/></clipPath><clipPath id="bbb708def4"><path d="M 122.808594 125.433594 L 110.636719 97.511719 L 127.890625 89.988281 L 140.0625 117.914062 Z M 122.808594 125.433594 " clip-rule="nonzero"/></clipPath><clipPath id="96189b2fca"><path d="M 119.578125 93.621094 L 122.628906 92.292969 C 124.332031 91.550781 126.285156 91.675781 127.878906 92.632812 C 129.46875 93.585938 130.5 95.25 130.648438 97.101562 C 131.058594 102.304688 133.203125 107.21875 136.734375 111.058594 C 137.988281 112.425781 138.507812 114.316406 138.121094 116.132812 C 137.738281 117.945312 136.5 119.464844 134.800781 120.207031 L 131.746094 121.539062 C 129.375 122.570312 126.691406 122.621094 124.285156 121.675781 C 121.878906 120.730469 119.945312 118.867188 118.914062 116.496094 L 114.535156 106.457031 C 113.503906 104.085938 113.453125 101.402344 114.398438 98.996094 C 115.34375 96.589844 117.207031 94.65625 119.578125 93.621094 Z M 119.578125 93.621094 " clip-rule="nonzero"/></clipPath><clipPath id="bcd069fcca"><path d="M 117 101 L 148 101 L 148 129 L 117 129 Z M 117 101 " clip-rule="nonzero"/></clipPath><clipPath id="a8396fe73b"><path d="M 138.980469 131.804688 L 113.765625 114.710938 L 124.328125 99.132812 L 149.539062 116.226562 Z M 138.980469 131.804688 " clip-rule="nonzero"/></clipPath><clipPath id="ad83d73965"><path d="M 119.242188 106.644531 L 121.109375 103.890625 C 122.152344 102.355469 123.871094 101.414062 125.726562 101.371094 C 127.582031 101.328125 129.347656 102.183594 130.457031 103.667969 C 133.585938 107.84375 138.023438 110.851562 143.0625 112.210938 C 144.855469 112.695312 146.300781 114.015625 146.949219 115.757812 C 147.59375 117.496094 147.359375 119.441406 146.316406 120.976562 L 144.449219 123.734375 C 143 125.875 140.757812 127.351562 138.21875 127.835938 C 135.679688 128.324219 133.046875 127.785156 130.910156 126.332031 L 121.84375 120.1875 C 119.703125 118.738281 118.226562 116.496094 117.738281 113.957031 C 117.25 111.414062 117.792969 108.785156 119.242188 106.644531 Z M 119.242188 106.644531 " clip-rule="nonzero"/></clipPath><clipPath id="ded6944639"><path d="M 85 73 L 134 73 L 134 129 L 85 129 Z M 85 73 " clip-rule="nonzero"/></clipPath><clipPath id="bdbab73a95"><path d="M 78.535156 114.066406 L 113.972656 67.523438 L 133.15625 82.132812 L 97.722656 128.675781 Z M 78.535156 114.066406 " clip-rule="nonzero"/></clipPath><clipPath id="bb57643660"><path d="M 90.898438 98.980469 C 92.375 96.347656 94.222656 93.460938 96.25 90.800781 C 98.273438 88.140625 100.410156 85.726562 102.542969 83.621094 C 102.589844 83.578125 102.628906 83.527344 102.679688 83.484375 C 110.761719 75.644531 119.265625 71.8125 123.390625 74.753906 L 133.128906 82.167969 L 97.722656 128.675781 L 87.992188 121.265625 C 84.027344 118.050781 85.382812 108.933594 90.898438 98.980469 Z M 90.898438 98.980469 " clip-rule="nonzero"/></clipPath><clipPath id="c444a37dda"><path d="M 102 67 L 148 67 L 148 101 L 102 101 Z M 102 67 " clip-rule="nonzero"/></clipPath><clipPath id="2ae561ef59"><path d="M 97.355469 83.753906 L 139.113281 61.027344 L 148.007812 77.371094 L 106.253906 100.101562 Z M 97.355469 83.753906 " clip-rule="nonzero"/></clipPath><clipPath id="4e282a262f"><path d="M 111.609375 76.792969 C 113.539062 75.261719 115.847656 73.691406 118.234375 72.390625 C 120.621094 71.09375 123.03125 70.050781 125.347656 69.265625 C 125.402344 69.253906 125.445312 69.230469 125.496094 69.214844 C 134.25 66.367188 142.230469 67.082031 144.707031 71.363281 L 147.984375 77.386719 L 106.253906 100.101562 L 102.976562 94.082031 C 100.710938 89.648438 104.351562 82.609375 111.609375 76.792969 Z M 111.609375 76.792969 " clip-rule="nonzero"/></clipPath><clipPath id="2a99694fec"><path d="M 135.332031 62.636719 L 149.035156 62.636719 L 149.035156 80.089844 L 135.332031 80.089844 Z M 135.332031 62.636719 " clip-rule="nonzero"/></clipPath><clipPath id="c48884c791"><path d="M 135.84375 74.273438 C 135.535156 73.382812 135.332031 72.363281 135.332031 71.367188 C 135.332031 70.371094 135.503906 69.410156 135.8125 68.527344 C 135.824219 68.507812 135.824219 68.488281 135.832031 68.46875 C 137.074219 65.148438 140.34375 62.699219 143.984375 62.652344 L 149.035156 62.652344 L 149.035156 80.089844 L 143.988281 80.089844 C 140.324219 80.042969 137.054688 77.632812 135.84375 74.273438 Z M 135.84375 74.273438 " clip-rule="nonzero"/></clipPath><clipPath id="f0609a1b08"><path d="M 101 60 L 159 60 L 159 93 L 101 93 Z M 101 60 " clip-rule="nonzero"/></clipPath><clipPath id="89c34e79c3"><path d="M 98.5 79.847656 L 152.265625 54.796875 L 158.054688 67.21875 L 104.289062 92.269531 Z M 98.5 79.847656 " clip-rule="nonzero"/></clipPath><clipPath id="3345b05c79"><path d="M 116.636719 71.960938 C 119.253906 70.402344 122.308594 68.753906 125.382812 67.324219 C 128.453125 65.890625 131.484375 64.671875 134.34375 63.679688 C 134.40625 63.664062 134.464844 63.636719 134.523438 63.617188 C 145.285156 59.972656 154.207031 59.421875 155.890625 62.65625 L 158.023438 67.234375 L 104.289062 92.269531 L 102.15625 87.695312 C 100.753906 84.304688 106.796875 77.882812 116.636719 71.960938 Z M 116.636719 71.960938 " clip-rule="nonzero"/></clipPath><clipPath id="dff8556d01"><path d="M 148.875 59.324219 L 157.824219 59.324219 L 157.824219 80.929688 L 148.875 80.929688 Z M 148.875 59.324219 " clip-rule="nonzero"/></clipPath><clipPath id="f653cfe34b"><path d="M 82 78 L 116 78 L 116 135 L 82 135 Z M 82 78 " clip-rule="nonzero"/></clipPath><clipPath id="313689f230"><path d="M 76.917969 128.234375 L 103.265625 75.089844 L 115.542969 81.179688 L 89.195312 134.324219 Z M 76.917969 128.234375 " clip-rule="nonzero"/></clipPath><clipPath id="fc0e9197b2"><path d="M 86.160156 110.75 C 87.226562 107.898438 88.585938 104.703125 90.089844 101.667969 C 91.597656 98.628906 93.203125 95.78125 94.816406 93.226562 C 94.851562 93.171875 94.882812 93.113281 94.917969 93.0625 C 101.042969 83.496094 107.671875 77.496094 111.003906 78.96875 L 115.527344 81.210938 L 89.195312 134.324219 L 84.675781 132.082031 C 81.460938 130.3125 82.167969 121.519531 86.160156 110.75 Z M 86.160156 110.75 " clip-rule="nonzero"/></clipPath><clipPath id="eb1e19faac"><path d="M 76.917969 129.851562 L 98.519531 129.851562 L 98.519531 135.953125 L 76.917969 135.953125 Z M 76.917969 129.851562 " clip-rule="nonzero"/></clipPath><clipPath id="2071e594f7"><path d="M 74 98 L 89 98 L 89 138 L 74 138 Z M 74 98 " clip-rule="nonzero"/></clipPath><clipPath id="b8827b4c80"><path d="M 73.75 136.21875 L 80.800781 98.089844 L 89.640625 99.722656 L 82.589844 137.855469 Z M 73.75 136.21875 " clip-rule="nonzero"/></clipPath><clipPath id="6ce09a2397"><path d="M 85.804688 99.042969 C 86.996094 99.261719 88.019531 100.027344 88.566406 101.105469 C 89.117188 102.1875 89.132812 103.464844 88.605469 104.558594 L 86.34375 109.273438 C 83.578125 115.03125 82.398438 121.417969 82.917969 127.78125 L 83.34375 132.996094 C 83.445312 134.207031 82.976562 135.390625 82.074219 136.207031 C 81.175781 137.019531 79.949219 137.367188 78.753906 137.144531 C 77.429688 136.898438 76.253906 136.136719 75.488281 135.023438 C 74.722656 133.910156 74.429688 132.542969 74.675781 131.214844 L 79.871094 103.121094 C 80.117188 101.792969 80.878906 100.617188 81.992188 99.851562 C 83.105469 99.089844 84.476562 98.796875 85.804688 99.042969 Z M 85.804688 99.042969 " clip-rule="nonzero"/></clipPath><clipPath id="f2508ea7f4"><path d="M 110.640625 125.410156 L 122.664062 125.410156 L 122.664062 147.390625 L 110.640625 147.390625 Z M 110.640625 125.410156 " clip-rule="nonzero"/></clipPath><clipPath id="626ad7b691"><path d="M 110.640625 141.378906 L 110.640625 131.449219 C 110.640625 129.851562 111.273438 128.324219 112.402344 127.195312 C 113.527344 126.070312 115.058594 125.433594 116.652344 125.433594 C 118.246094 125.433594 119.777344 126.070312 120.90625 127.195312 C 122.03125 128.324219 122.664062 129.851562 122.664062 131.449219 L 122.664062 141.378906 C 122.664062 142.972656 122.03125 144.503906 120.90625 145.632812 C 119.777344 146.757812 118.246094 147.390625 116.652344 147.390625 C 115.058594 147.390625 113.527344 146.757812 112.402344 145.632812 C 111.273438 144.503906 110.640625 142.972656 110.640625 141.378906 Z M 110.640625 141.378906 " clip-rule="nonzero"/></clipPath><clipPath id="ef30f1687e"><path d="M 110 116 L 136 116 L 136 141 L 110 141 Z M 110 116 " clip-rule="nonzero"/></clipPath><clipPath id="7f3017739d"><path d="M 107.910156 134.496094 L 130.707031 114.253906 L 137.539062 121.945312 L 114.742188 142.1875 Z M 107.910156 134.496094 " clip-rule="nonzero"/></clipPath><clipPath id="b8b234fc7a"><path d="M 134.65625 118.75 C 135.570312 119.785156 135.933594 121.195312 135.625 122.539062 C 135.316406 123.882812 134.378906 124.996094 133.101562 125.523438 L 131.195312 126.320312 C 126.375 128.324219 122.367188 131.882812 119.808594 136.429688 L 118.792969 138.230469 C 118.117188 139.433594 116.902344 140.234375 115.53125 140.382812 C 114.160156 140.527344 112.800781 140.003906 111.886719 138.972656 C 109.691406 136.5 109.914062 132.71875 112.386719 130.523438 L 126.207031 118.25 C 128.675781 116.054688 132.460938 116.28125 134.65625 118.75 Z M 134.65625 118.75 " clip-rule="nonzero"/></clipPath><clipPath id="fad78d7038"><path d="M 98 115 L 122 115 L 122 142 L 98 142 Z M 98 115 " clip-rule="nonzero"/></clipPath><clipPath id="8f73b51e38"><path d="M 104.925781 113.339844 L 123.28125 137.671875 L 115.710938 143.382812 L 97.355469 119.054688 Z M 104.925781 113.339844 " clip-rule="nonzero"/></clipPath><clipPath id="057641a793"><path d="M 118.859375 140.976562 C 117.84375 141.742188 116.519531 141.96875 115.308594 141.585938 C 114.09375 141.203125 113.140625 140.261719 112.75 139.050781 L 111.964844 136.640625 C 110.351562 131.675781 107.125 127.398438 102.796875 124.484375 L 100.691406 123.070312 C 99.636719 122.359375 98.992188 121.183594 98.957031 119.910156 C 98.921875 118.640625 99.503906 117.429688 100.519531 116.664062 C 102.953125 114.828125 106.414062 115.3125 108.25 117.746094 L 119.941406 133.246094 C 121.777344 135.679688 121.292969 139.140625 118.859375 140.976562 Z M 118.859375 140.976562 " clip-rule="nonzero"/></clipPath></defs><g clip-path="url(#05664d7a39)"><path fill="#242424" d="M 268.316406 168.609375 C 268.316406 124.046875 232.0625 87.789062 187.496094 87.789062 C 184.851562 87.789062 182.710938 89.933594 182.710938 92.574219 L 182.710938 116.230469 L 180.414062 116.230469 C 171.824219 116.230469 164.835938 123.214844 164.835938 131.804688 C 164.835938 140.394531 171.824219 147.382812 180.414062 147.382812 L 182.710938 147.382812 L 182.710938 163.824219 L 161.480469 163.824219 C 158.839844 163.824219 156.695312 165.96875 156.695312 168.609375 L 156.695312 175.691406 C 156.695312 179.003906 154.003906 181.695312 150.691406 181.695312 C 147.378906 181.695312 144.683594 179.003906 144.683594 175.691406 L 144.683594 168.609375 C 144.683594 165.96875 142.542969 163.824219 139.898438 163.824219 L 111.460938 163.824219 C 108.816406 163.824219 106.675781 165.96875 106.675781 168.609375 C 106.675781 191.089844 113.785156 202.085938 121.308594 213.730469 C 129.140625 225.84375 137.964844 239.511719 141.074219 270.628906 C 133.632812 272.585938 128.125 279.371094 128.125 287.417969 L 128.125 314.546875 C 128.125 324.117188 135.910156 331.902344 145.480469 331.902344 L 153.617188 331.902344 L 153.617188 339.71875 C 153.617188 348.898438 161.082031 356.363281 170.261719 356.363281 L 204.730469 356.363281 C 213.90625 356.363281 221.375 348.898438 221.375 339.71875 L 221.375 331.902344 L 229.507812 331.902344 C 239.078125 331.902344 246.863281 324.117188 246.863281 314.546875 L 246.863281 287.417969 C 246.863281 279.371094 241.359375 272.585938 233.917969 270.628906 C 237.027344 239.511719 245.847656 225.84375 253.679688 213.730469 C 261.207031 202.085938 268.316406 191.089844 268.316406 168.609375 Z M 237.292969 287.417969 L 237.292969 314.546875 C 237.292969 318.839844 233.800781 322.332031 229.511719 322.332031 L 216.589844 322.332031 C 213.945312 322.332031 211.800781 324.472656 211.800781 327.117188 L 211.800781 339.71875 C 211.800781 343.621094 208.628906 346.792969 204.730469 346.792969 L 170.261719 346.792969 C 166.359375 346.792969 163.1875 343.621094 163.1875 339.71875 L 163.1875 327.117188 C 163.1875 324.472656 161.046875 322.332031 158.402344 322.332031 L 145.480469 322.332031 C 141.191406 322.332031 137.699219 318.839844 137.699219 314.546875 L 137.699219 287.417969 C 137.699219 283.125 141.191406 279.632812 145.480469 279.632812 L 229.511719 279.632812 C 233.800781 279.632812 237.292969 283.125 237.292969 287.417969 Z M 224.355469 270.0625 L 150.636719 270.0625 C 147.351562 236.398438 137.808594 221.621094 129.347656 208.535156 C 122.648438 198.171875 117.238281 189.800781 116.367188 173.394531 L 135.113281 173.394531 L 135.113281 175.691406 C 135.113281 184.28125 142.101562 191.269531 150.691406 191.269531 C 159.277344 191.269531 166.265625 184.28125 166.265625 175.691406 L 166.265625 173.394531 L 187.496094 173.394531 C 190.140625 173.394531 192.28125 171.253906 192.28125 168.609375 L 192.28125 142.597656 C 192.28125 139.953125 190.140625 137.8125 187.496094 137.8125 L 180.414062 137.8125 C 177.101562 137.8125 174.410156 135.117188 174.410156 131.804688 C 174.410156 128.492188 177.101562 125.800781 180.414062 125.800781 L 187.496094 125.800781 C 190.140625 125.800781 192.28125 123.65625 192.28125 121.015625 L 192.28125 97.519531 C 229.34375 99.992188 258.746094 130.933594 258.746094 168.609375 C 258.746094 188.265625 252.964844 197.210938 245.644531 208.535156 C 237.179688 221.621094 227.640625 236.398438 224.355469 270.0625 Z M 132.082031 141.507812 L 132.082031 139.210938 L 153.3125 139.210938 C 155.953125 139.210938 158.097656 137.070312 158.097656 134.425781 L 158.097656 108.410156 C 158.097656 105.769531 155.953125 103.625 153.3125 103.625 L 146.230469 103.625 C 142.917969 103.625 140.222656 100.933594 140.222656 97.621094 C 140.222656 94.308594 142.917969 91.613281 146.230469 91.613281 L 153.3125 91.613281 C 155.953125 91.613281 158.097656 89.472656 158.097656 86.828125 L 158.097656 58.390625 C 158.097656 57.121094 157.59375 55.902344 156.695312 55.003906 C 155.796875 54.109375 154.582031 53.605469 153.3125 53.605469 C 108.746094 53.605469 72.488281 89.859375 72.488281 134.425781 C 72.488281 137.070312 74.632812 139.210938 77.273438 139.210938 L 100.929688 139.210938 L 100.929688 141.507812 C 100.929688 150.097656 107.917969 157.085938 116.503906 157.085938 C 125.09375 157.085938 132.082031 150.097656 132.082031 141.507812 Z M 110.5 141.507812 L 110.5 134.425781 C 110.5 131.78125 108.359375 129.640625 105.714844 129.640625 L 82.21875 129.640625 C 84.585938 94.160156 113.042969 65.699219 148.523438 63.335938 L 148.523438 82.042969 L 146.230469 82.042969 C 137.640625 82.042969 130.652344 89.03125 130.652344 97.621094 C 130.652344 106.210938 137.640625 113.199219 146.230469 113.199219 L 148.523438 113.199219 L 148.523438 129.640625 L 127.296875 129.640625 C 124.652344 129.640625 122.511719 131.785156 122.511719 134.425781 L 122.511719 141.507812 C 122.511719 144.820312 119.816406 147.511719 116.507812 147.511719 C 113.195312 147.511719 110.5 144.820312 110.5 141.507812 Z M 85.015625 254.800781 C 85.015625 257.441406 82.875 259.585938 80.230469 259.585938 L 65.3125 259.585938 C 62.671875 259.585938 60.527344 257.441406 60.527344 254.800781 C 60.527344 252.15625 62.671875 250.015625 65.3125 250.015625 L 80.230469 250.015625 C 82.875 250.015625 85.015625 252.15625 85.015625 254.800781 Z M 56.609375 226.390625 L 56.609375 241.308594 C 56.609375 243.949219 54.464844 246.09375 51.824219 246.09375 C 49.179688 246.09375 47.035156 243.949219 47.035156 241.308594 L 47.035156 226.390625 C 47.035156 223.75 49.179688 221.605469 51.824219 221.605469 C 54.464844 221.605469 56.609375 223.75 56.609375 226.390625 Z M 43.117188 254.800781 C 43.117188 257.441406 40.972656 259.585938 38.332031 259.585938 L 23.414062 259.585938 C 20.773438 259.585938 18.628906 257.441406 18.628906 254.800781 C 18.628906 252.15625 20.773438 250.015625 23.414062 250.015625 L 38.332031 250.015625 C 40.972656 250.015625 43.117188 252.15625 43.117188 254.800781 Z M 56.609375 268.292969 L 56.609375 283.207031 C 56.609375 285.851562 54.464844 287.992188 51.824219 287.992188 C 49.179688 287.992188 47.035156 285.851562 47.035156 283.207031 L 47.035156 268.292969 C 47.035156 265.648438 49.179688 263.503906 51.824219 263.503906 C 54.464844 263.503906 56.609375 265.648438 56.609375 268.292969 Z M 56.609375 65.316406 L 56.609375 80.230469 C 56.609375 82.875 54.464844 85.015625 51.824219 85.015625 C 49.179688 85.015625 47.035156 82.875 47.035156 80.230469 L 47.035156 65.316406 C 47.035156 62.671875 49.179688 60.527344 51.824219 60.527344 C 54.464844 60.527344 56.609375 62.671875 56.609375 65.316406 Z M 60.527344 51.824219 C 60.527344 49.179688 62.671875 47.035156 65.3125 47.035156 L 80.230469 47.035156 C 82.875 47.035156 85.015625 49.179688 85.015625 51.824219 C 85.015625 54.464844 82.875 56.609375 80.230469 56.609375 L 65.3125 56.609375 C 62.671875 56.609375 60.527344 54.464844 60.527344 51.824219 Z M 56.609375 23.414062 L 56.609375 38.332031 C 56.609375 40.976562 54.464844 43.117188 51.824219 43.117188 C 49.179688 43.117188 47.035156 40.976562 47.035156 38.332031 L 47.035156 23.414062 C 47.035156 20.773438 49.179688 18.628906 51.824219 18.628906 C 54.464844 18.628906 56.609375 20.773438 56.609375 23.414062 Z M 43.117188 51.824219 C 43.117188 54.464844 40.972656 56.609375 38.332031 56.609375 L 23.414062 56.609375 C 20.773438 56.609375 18.628906 54.464844 18.628906 51.824219 C 18.628906 49.179688 20.773438 47.035156 23.414062 47.035156 L 38.332031 47.035156 C 40.972656 47.035156 43.117188 49.179688 43.117188 51.824219 Z M 314.464844 323.167969 C 314.464844 325.8125 312.320312 327.953125 309.679688 327.953125 L 294.761719 327.953125 C 292.117188 327.953125 289.976562 325.8125 289.976562 323.167969 C 289.976562 320.527344 292.117188 318.382812 294.761719 318.382812 L 309.679688 318.382812 C 312.320312 318.382812 314.464844 320.527344 314.464844 323.167969 Z M 356.363281 323.167969 C 356.363281 325.8125 354.21875 327.953125 351.578125 327.953125 L 336.660156 327.953125 C 334.019531 327.953125 331.875 325.8125 331.875 323.167969 C 331.875 320.527344 334.019531 318.382812 336.660156 318.382812 L 351.578125 318.382812 C 354.21875 318.382812 356.363281 320.527344 356.363281 323.167969 Z M 327.957031 294.761719 L 327.957031 309.679688 C 327.957031 312.320312 325.8125 314.464844 323.167969 314.464844 C 320.527344 314.464844 318.382812 312.320312 318.382812 309.679688 L 318.382812 294.761719 C 318.382812 292.117188 320.527344 289.976562 323.167969 289.976562 C 325.8125 289.976562 327.957031 292.117188 327.957031 294.761719 Z M 327.957031 336.660156 L 327.957031 351.578125 C 327.957031 354.21875 325.8125 356.363281 323.167969 356.363281 C 320.527344 356.363281 318.382812 354.21875 318.382812 351.578125 L 318.382812 336.660156 C 318.382812 334.019531 320.527344 331.875 323.167969 331.875 C 325.8125 331.875 327.957031 334.019531 327.957031 336.660156 Z M 255.84375 100.261719 C 253.972656 98.394531 253.972656 95.363281 255.84375 93.496094 L 286.78125 62.558594 C 288.648438 60.691406 291.679688 60.691406 293.546875 62.558594 C 295.417969 64.425781 295.417969 67.457031 293.546875 69.324219 L 262.609375 100.261719 C 261.675781 101.199219 260.453125 101.664062 259.226562 101.664062 C 258 101.664062 256.777344 101.199219 255.84375 100.261719 Z M 290.164062 276.066406 C 288.941406 276.066406 287.714844 275.597656 286.78125 274.664062 L 255.84375 243.726562 C 253.972656 241.855469 253.972656 238.828125 255.84375 236.957031 C 257.710938 235.089844 260.742188 235.089844 262.609375 236.957031 L 293.546875 267.898438 C 295.417969 269.765625 295.417969 272.796875 293.546875 274.664062 C 292.613281 275.597656 291.390625 276.066406 290.164062 276.066406 Z M 288.941406 163.824219 L 332.691406 163.824219 C 335.335938 163.824219 337.476562 165.96875 337.476562 168.609375 C 337.476562 171.253906 335.335938 173.398438 332.691406 173.398438 L 288.941406 173.398438 C 286.296875 173.398438 284.152344 171.253906 284.152344 168.609375 C 284.152344 165.96875 286.296875 163.824219 288.941406 163.824219 Z M 182.710938 67.167969 L 182.710938 23.414062 C 182.710938 20.773438 184.851562 18.628906 187.496094 18.628906 C 190.140625 18.628906 192.28125 20.773438 192.28125 23.414062 L 192.28125 67.167969 C 192.28125 69.8125 190.140625 71.953125 187.496094 71.953125 C 184.851562 71.953125 182.710938 69.808594 182.710938 67.167969 Z M 182.710938 67.167969 " fill-opacity="1" fill-rule="nonzero"/></g><g clip-path="url(#04cf1cdd44)"><path fill="#fcc018" d="M 82.277344 111.730469 L 148.878906 111.730469 L 148.878906 129.828125 L 82.277344 129.828125 Z M 82.277344 111.730469 " fill-opacity="1" fill-rule="nonzero"/></g><g clip-path="url(#a564a40443)"><path fill="#fcc018" d="M 93.527344 97.230469 L 130.457031 97.230469 L 130.457031 113.53125 L 93.527344 113.53125 Z M 93.527344 97.230469 " fill-opacity="1" fill-rule="nonzero"/></g><g clip-path="url(#b5f984c247)"><path fill="#fcc018" d="M 105.976562 80.929688 L 130.425781 80.929688 L 130.425781 97.230469 L 105.976562 97.230469 Z M 105.976562 80.929688 " fill-opacity="1" fill-rule="nonzero"/></g><g clip-path="url(#eca7ace4ef)"><path fill="#fcc018" d="M 113.777344 75.128906 L 148.871094 75.128906 L 148.871094 80.929688 L 113.777344 80.929688 Z M 113.777344 75.128906 " fill-opacity="1" fill-rule="nonzero"/></g><g clip-path="url(#d280b003c0)"><path fill="#fcc018" d="M 120.226562 72.40625 L 148.878906 72.40625 L 148.878906 76.15625 L 120.226562 76.15625 Z M 120.226562 72.40625 " fill-opacity="1" fill-rule="nonzero"/></g><g clip-path="url(#c5dc6c9471)"><path fill="#fcc018" d="M 126.675781 68.992188 L 148.875 68.992188 L 148.875 73.765625 L 126.675781 73.765625 Z M 126.675781 68.992188 " fill-opacity="1" fill-rule="nonzero"/></g><g clip-path="url(#65d2897c76)"><path fill="#fcc018" d="M 133.128906 65.242188 L 148.882812 65.242188 L 148.882812 81.917969 L 133.128906 81.917969 Z M 133.128906 65.242188 " fill-opacity="1" fill-rule="nonzero"/></g><g clip-path="url(#6d58ef4e72)"><g clip-path="url(#7fd2ffce98)"><g clip-path="url(#0459ed7c2e)"><path fill="#fcc018" d="M 110.644531 96.398438 L 123.582031 68.824219 L 142.714844 77.800781 L 129.773438 105.375 Z M 110.644531 96.398438 " fill-opacity="1" fill-rule="nonzero"/></g></g></g><g clip-path="url(#a5b76d7a2b)"><g clip-path="url(#ad511c6b94)"><g clip-path="url(#064a6c723a)"><path fill="#fcc018" d="M 114.597656 80.007812 L 139.417969 62.351562 L 151.667969 79.574219 L 126.84375 97.226562 Z M 114.597656 80.007812 " fill-opacity="1" fill-rule="nonzero"/></g></g></g><g clip-path="url(#8aa89f5b05)"><g clip-path="url(#bbb708def4)"><g clip-path="url(#96189b2fca)"><path fill="#fcc018" d="M 122.808594 125.433594 L 110.636719 97.511719 L 130.007812 89.066406 L 142.179688 116.988281 Z M 122.808594 125.433594 " fill-opacity="1" fill-rule="nonzero"/></g></g></g><g clip-path="url(#bcd069fcca)"><g clip-path="url(#a8396fe73b)"><g clip-path="url(#ad83d73965)"><path fill="#fcc018" d="M 138.980469 131.804688 L 113.765625 114.710938 L 125.625 97.21875 L 150.835938 114.3125 Z M 138.980469 131.804688 " fill-opacity="1" fill-rule="nonzero"/></g></g></g><g clip-path="url(#ded6944639)"><g clip-path="url(#bdbab73a95)"><g clip-path="url(#bb57643660)"><path fill="#fcc018" d="M 78.535156 114.066406 L 113.972656 67.523438 L 133.15625 82.132812 L 97.722656 128.675781 Z M 78.535156 114.066406 " fill-opacity="1" fill-rule="nonzero"/></g></g></g><g clip-path="url(#c444a37dda)"><g clip-path="url(#2ae561ef59)"><g clip-path="url(#4e282a262f)"><path fill="#fcc018" d="M 97.355469 83.753906 L 139.113281 61.027344 L 148.007812 77.371094 L 106.253906 100.101562 Z M 97.355469 83.753906 " fill-opacity="1" fill-rule="nonzero"/></g></g></g><g clip-path="url(#2a99694fec)"><g clip-path="url(#c48884c791)"><path fill="#fcc018" d="M 135.332031 80.089844 L 135.332031 62.636719 L 149.035156 62.636719 L 149.035156 80.089844 Z M 135.332031 80.089844 " fill-opacity="1" fill-rule="nonzero"/></g></g><g clip-path="url(#f0609a1b08)"><g clip-path="url(#89c34e79c3)"><g clip-path="url(#3345b05c79)"><path fill="#fcc018" d="M 98.5 79.847656 L 152.21875 54.820312 L 158.007812 67.242188 L 104.289062 92.269531 Z M 98.5 79.847656 " fill-opacity="1" fill-rule="nonzero"/></g></g></g><g clip-path="url(#dff8556d01)"><path fill="#242424" d="M 157.824219 59.324219 L 157.824219 80.929688 L 148.875 80.929688 L 148.875 59.324219 Z M 157.824219 59.324219 " fill-opacity="1" fill-rule="nonzero"/></g><g clip-path="url(#f653cfe34b)"><g clip-path="url(#313689f230)"><g clip-path="url(#fc0e9197b2)"><path fill="#fcc018" d="M 76.917969 128.234375 L 103.242188 75.140625 L 115.519531 81.226562 L 89.195312 134.324219 Z M 76.917969 128.234375 " fill-opacity="1" fill-rule="nonzero"/></g></g></g><g clip-path="url(#eb1e19faac)"><path fill="#242424" d="M 76.917969 129.851562 L 98.527344 129.851562 L 98.527344 135.953125 L 76.917969 135.953125 Z M 76.917969 129.851562 " fill-opacity="1" fill-rule="nonzero"/></g><g clip-path="url(#2071e594f7)"><g clip-path="url(#b8827b4c80)"><g clip-path="url(#6ce09a2397)"><path fill="#242424" d="M 73.75 136.21875 L 80.796875 98.128906 L 90.808594 99.980469 L 83.761719 138.070312 Z M 73.75 136.21875 " fill-opacity="1" fill-rule="nonzero"/></g></g></g><g clip-path="url(#f2508ea7f4)"><g clip-path="url(#626ad7b691)"><path fill="#fcc018" d="M 110.640625 147.390625 L 110.640625 125.457031 L 122.664062 125.457031 L 122.664062 147.390625 Z M 110.640625 147.390625 " fill-opacity="1" fill-rule="nonzero"/></g></g><g clip-path="url(#ef30f1687e)"><g clip-path="url(#7f3017739d)"><g clip-path="url(#b8b234fc7a)"><path fill="#fcc018" d="M 107.910156 134.496094 L 130.671875 114.285156 L 138.621094 123.234375 L 115.859375 143.449219 Z M 107.910156 134.496094 " fill-opacity="1" fill-rule="nonzero"/></g></g></g><g clip-path="url(#fad78d7038)"><g clip-path="url(#8f73b51e38)"><g clip-path="url(#057641a793)"><path fill="#fcc018" d="M 104.925781 113.339844 L 123.253906 137.636719 L 114.445312 144.285156 L 96.113281 119.988281 Z M 104.925781 113.339844 " fill-opacity="1" fill-rule="nonzero"/></g></g></g></svg>