<svg xmlns="http://www.w3.org/2000/svg" xmlns:xlink="http://www.w3.org/1999/xlink" width="500" zoomAndPan="magnify" viewBox="0 0 375 374.999991" height="500" preserveAspectRatio="xMidYMid meet" version="1.0"><defs><clipPath id="5c0fa6b09e"><path d="M 32 14.007812 L 346 14.007812 L 346 313 L 32 313 Z M 32 14.007812 " clip-rule="nonzero"/></clipPath><clipPath id="fe68a5c02c"><path d="M 9.789062 318 L 56 318 L 56 361 L 9.789062 361 Z M 9.789062 318 " clip-rule="nonzero"/></clipPath></defs><path fill="#ffffff" d="M 362.59375 44.917969 C 362.167969 44.921875 361.769531 44.816406 361.402344 44.601562 C 359.351562 43.429688 357.253906 42.28125 355.152344 41.179688 C 354.878906 41.027344 354.644531 40.828125 354.449219 40.585938 C 354.25 40.339844 354.109375 40.070312 354.019531 39.769531 C 353.929688 39.46875 353.898438 39.164062 353.925781 38.851562 C 353.957031 38.539062 354.042969 38.246094 354.191406 37.964844 C 354.335938 37.6875 354.527344 37.449219 354.765625 37.246094 C 355.003906 37.042969 355.273438 36.894531 355.570312 36.796875 C 355.871094 36.699219 356.175781 36.660156 356.488281 36.683594 C 356.800781 36.703125 357.097656 36.785156 357.378906 36.921875 C 359.53125 38.046875 361.703125 39.230469 363.785156 40.429688 C 364.015625 40.5625 364.21875 40.726562 364.390625 40.925781 C 364.566406 41.125 364.707031 41.347656 364.808594 41.589844 C 364.910156 41.835938 364.96875 42.089844 364.988281 42.355469 C 365.007812 42.617188 364.980469 42.878906 364.914062 43.136719 C 364.84375 43.390625 364.738281 43.628906 364.589844 43.851562 C 364.441406 44.070312 364.265625 44.261719 364.054688 44.421875 C 363.84375 44.582031 363.613281 44.707031 363.363281 44.792969 C 363.109375 44.878906 362.851562 44.917969 362.585938 44.917969 Z M 362.59375 44.917969 " fill-opacity="1" fill-rule="nonzero"/><g clip-path="url(#5c0fa6b09e)"><path fill="#ffffff" d="M 34.734375 312.726562 C 34.59375 312.726562 34.457031 312.714844 34.320312 312.695312 C 34.007812 312.636719 33.71875 312.523438 33.449219 312.351562 C 33.179688 312.183594 32.957031 311.96875 32.773438 311.707031 C 32.589844 311.445312 32.464844 311.160156 32.398438 310.851562 C 32.328125 310.539062 32.320312 310.230469 32.375 309.914062 C 33.199219 305.144531 34.152344 300.328125 35.199219 295.589844 C 35.269531 295.28125 35.394531 294.992188 35.578125 294.734375 C 35.761719 294.472656 35.988281 294.253906 36.257812 294.085938 C 36.527344 293.914062 36.816406 293.800781 37.132812 293.746094 C 37.445312 293.691406 37.757812 293.695312 38.070312 293.765625 C 38.378906 293.835938 38.667969 293.960938 38.925781 294.144531 C 39.1875 294.328125 39.40625 294.550781 39.574219 294.820312 C 39.746094 295.089844 39.859375 295.382812 39.914062 295.695312 C 39.972656 296.007812 39.964844 296.320312 39.894531 296.632812 C 38.855469 301.292969 37.921875 306.039062 37.109375 310.738281 C 37.058594 311.015625 36.964844 311.277344 36.824219 311.523438 C 36.679688 311.769531 36.5 311.984375 36.285156 312.164062 C 36.066406 312.347656 35.824219 312.488281 35.558594 312.582031 C 35.292969 312.679688 35.015625 312.726562 34.734375 312.726562 Z M 40.980469 284.453125 C 40.796875 284.453125 40.613281 284.429688 40.433594 284.390625 C 40.253906 284.347656 40.082031 284.285156 39.917969 284.203125 C 39.75 284.121094 39.597656 284.023438 39.453125 283.90625 C 39.3125 283.789062 39.183594 283.65625 39.070312 283.507812 C 38.957031 283.363281 38.863281 283.203125 38.789062 283.035156 C 38.710938 282.867188 38.65625 282.691406 38.621094 282.511719 C 38.585938 282.332031 38.570312 282.148438 38.578125 281.964844 C 38.585938 281.777344 38.613281 281.597656 38.660156 281.417969 C 39.929688 276.742188 41.324219 272.035156 42.808594 267.421875 C 42.902344 267.113281 43.054688 266.839844 43.257812 266.59375 C 43.464844 266.347656 43.710938 266.152344 43.996094 266.003906 C 44.277344 265.855469 44.582031 265.769531 44.898438 265.742188 C 45.21875 265.714844 45.53125 265.753906 45.835938 265.851562 C 46.140625 265.949219 46.414062 266.101562 46.660156 266.308594 C 46.902344 266.515625 47.097656 266.761719 47.242188 267.046875 C 47.386719 267.335938 47.472656 267.636719 47.496094 267.957031 C 47.519531 268.273438 47.484375 268.585938 47.382812 268.890625 C 45.941406 273.433594 44.546875 278.070312 43.296875 282.679688 C 43.230469 282.929688 43.125 283.164062 42.980469 283.378906 C 42.835938 283.59375 42.660156 283.785156 42.457031 283.945312 C 42.25 284.101562 42.027344 284.226562 41.78125 284.3125 C 41.535156 284.398438 41.285156 284.445312 41.023438 284.453125 Z M 49.851562 256.878906 C 49.5625 256.878906 49.28125 256.824219 49.011719 256.722656 C 48.714844 256.613281 48.449219 256.445312 48.214844 256.230469 C 47.984375 256.011719 47.800781 255.757812 47.667969 255.46875 C 47.535156 255.179688 47.464844 254.875 47.453125 254.558594 C 47.441406 254.238281 47.492188 253.929688 47.601562 253.632812 C 49.304688 249.085938 51.128906 244.527344 53.035156 240.082031 C 53.160156 239.789062 53.335938 239.53125 53.5625 239.308594 C 53.792969 239.085938 54.054688 238.917969 54.347656 238.796875 C 54.644531 238.679688 54.953125 238.621094 55.269531 238.625 C 55.589844 238.628906 55.894531 238.695312 56.1875 238.820312 C 56.480469 238.945312 56.738281 239.121094 56.960938 239.347656 C 57.183594 239.574219 57.355469 239.835938 57.472656 240.132812 C 57.59375 240.425781 57.648438 240.734375 57.648438 241.054688 C 57.644531 241.371094 57.578125 241.675781 57.453125 241.96875 C 55.582031 246.347656 53.777344 250.835938 52.105469 255.316406 C 51.933594 255.78125 51.640625 256.15625 51.234375 256.441406 C 50.828125 256.726562 50.375 256.871094 49.875 256.878906 Z M 127.042969 238.160156 C 126.726562 238.179688 126.414062 238.136719 126.113281 238.035156 C 125.808594 237.933594 125.539062 237.773438 125.300781 237.5625 C 125.058594 237.351562 124.871094 237.105469 124.730469 236.816406 C 124.589844 236.53125 124.507812 236.230469 124.488281 235.910156 C 124.46875 235.589844 124.507812 235.28125 124.609375 234.980469 C 124.714844 234.675781 124.871094 234.40625 125.082031 234.167969 C 125.292969 233.925781 125.542969 233.738281 125.828125 233.59375 C 126.113281 233.453125 126.417969 233.375 126.734375 233.355469 C 131.324219 232.769531 135.730469 231.53125 139.953125 229.640625 C 140.242188 229.507812 140.546875 229.4375 140.863281 229.425781 C 141.183594 229.414062 141.492188 229.464844 141.789062 229.578125 C 142.089844 229.691406 142.355469 229.855469 142.585938 230.074219 C 142.820312 230.292969 143 230.546875 143.132812 230.835938 C 143.265625 231.125 143.335938 231.429688 143.347656 231.75 C 143.355469 232.066406 143.304688 232.375 143.191406 232.675781 C 143.082031 232.972656 142.917969 233.238281 142.699219 233.46875 C 142.480469 233.703125 142.226562 233.886719 141.9375 234.015625 C 137.28125 236.109375 132.421875 237.476562 127.359375 238.121094 C 127.234375 238.148438 127.128906 238.160156 127.042969 238.160156 Z M 112.601562 238.097656 C 112.496094 238.105469 112.386719 238.105469 112.277344 238.097656 C 107.246094 237.40625 102.394531 236.058594 97.730469 234.050781 C 97.4375 233.921875 97.179688 233.746094 96.960938 233.515625 C 96.738281 233.285156 96.570312 233.023438 96.453125 232.726562 C 96.335938 232.429688 96.28125 232.121094 96.285156 231.800781 C 96.292969 231.480469 96.359375 231.175781 96.484375 230.882812 C 96.613281 230.589844 96.792969 230.335938 97.019531 230.113281 C 97.25 229.890625 97.515625 229.722656 97.8125 229.605469 C 98.109375 229.488281 98.414062 229.433594 98.734375 229.4375 C 99.054688 229.445312 99.359375 229.511719 99.652344 229.640625 C 103.917969 231.46875 108.351562 232.691406 112.949219 233.316406 C 113.25 233.359375 113.53125 233.453125 113.796875 233.605469 C 114.058594 233.753906 114.285156 233.945312 114.476562 234.183594 C 114.667969 234.417969 114.808594 234.679688 114.902344 234.96875 C 114.992188 235.257812 115.027344 235.554688 115.007812 235.859375 C 114.988281 236.160156 114.910156 236.449219 114.78125 236.722656 C 114.652344 236.996094 114.476562 237.238281 114.253906 237.445312 C 114.035156 237.652344 113.78125 237.8125 113.5 237.925781 C 113.21875 238.039062 112.925781 238.09375 112.621094 238.097656 Z M 61.28125 230.25 C 61.078125 230.25 60.875 230.222656 60.679688 230.171875 C 60.484375 230.121094 60.296875 230.046875 60.117188 229.949219 C 59.941406 229.847656 59.777344 229.730469 59.628906 229.589844 C 59.484375 229.449219 59.355469 229.292969 59.246094 229.121094 C 59.140625 228.949219 59.054688 228.765625 58.992188 228.570312 C 58.933594 228.378906 58.894531 228.179688 58.886719 227.976562 C 58.875 227.773438 58.890625 227.570312 58.929688 227.371094 C 58.96875 227.171875 59.035156 226.980469 59.121094 226.800781 C 61.238281 222.4375 63.484375 218.066406 65.800781 213.824219 C 65.953125 213.542969 66.15625 213.304688 66.402344 213.101562 C 66.652344 212.902344 66.925781 212.757812 67.234375 212.667969 C 67.539062 212.578125 67.851562 212.546875 68.167969 212.582031 C 68.484375 212.617188 68.785156 212.710938 69.0625 212.863281 C 69.34375 213.015625 69.585938 213.214844 69.785156 213.464844 C 69.984375 213.710938 70.128906 213.988281 70.21875 214.296875 C 70.308594 214.601562 70.335938 214.914062 70.300781 215.230469 C 70.269531 215.546875 70.175781 215.847656 70.019531 216.125 C 67.738281 220.308594 65.527344 224.609375 63.441406 228.902344 C 63.242188 229.316406 62.945312 229.644531 62.554688 229.886719 C 62.164062 230.128906 61.738281 230.25 61.28125 230.25 Z M 86.363281 226.679688 C 85.789062 226.679688 85.28125 226.492188 84.835938 226.125 C 80.953125 222.902344 77.515625 219.257812 74.523438 215.195312 C 74.300781 214.941406 74.140625 214.65625 74.035156 214.335938 C 73.933594 214.015625 73.898438 213.6875 73.933594 213.351562 C 73.96875 213.019531 74.070312 212.707031 74.238281 212.414062 C 74.402344 212.121094 74.621094 211.875 74.894531 211.675781 C 75.164062 211.472656 75.460938 211.335938 75.789062 211.261719 C 76.117188 211.1875 76.445312 211.179688 76.777344 211.242188 C 77.105469 211.304688 77.410156 211.433594 77.6875 211.625 C 77.964844 211.816406 78.191406 212.054688 78.367188 212.339844 C 81.128906 216.089844 84.296875 219.453125 87.878906 222.429688 C 88.269531 222.753906 88.53125 223.160156 88.664062 223.648438 C 88.796875 224.136719 88.777344 224.621094 88.605469 225.097656 C 88.433594 225.570312 88.140625 225.957031 87.726562 226.246094 C 87.3125 226.539062 86.851562 226.683594 86.34375 226.683594 Z M 152.867188 226.199219 C 152.378906 226.199219 151.933594 226.0625 151.527344 225.789062 C 151.121094 225.515625 150.828125 225.152344 150.644531 224.699219 C 150.460938 224.25 150.417969 223.78125 150.515625 223.304688 C 150.617188 222.828125 150.839844 222.417969 151.191406 222.074219 C 152.292969 221.003906 153.324219 219.863281 154.285156 218.664062 C 156.140625 216.316406 157.632812 213.757812 158.761719 210.988281 C 158.875 210.683594 159.042969 210.414062 159.269531 210.179688 C 159.492188 209.941406 159.753906 209.757812 160.050781 209.628906 C 160.351562 209.5 160.660156 209.433594 160.988281 209.429688 C 161.3125 209.425781 161.625 209.488281 161.925781 209.609375 C 162.226562 209.734375 162.492188 209.914062 162.71875 210.144531 C 162.949219 210.375 163.125 210.644531 163.242188 210.945312 C 163.363281 211.246094 163.421875 211.5625 163.414062 211.886719 C 163.40625 212.210938 163.335938 212.523438 163.199219 212.820312 C 161.898438 216.007812 160.175781 218.949219 158.035156 221.644531 C 156.949219 222.996094 155.78125 224.277344 154.535156 225.488281 C 154.074219 225.941406 153.519531 226.175781 152.867188 226.179688 Z M 75.144531 204.820312 C 74.710938 204.820312 74.304688 204.707031 73.929688 204.488281 C 73.554688 204.269531 73.261719 203.972656 73.050781 203.59375 C 72.835938 203.214844 72.734375 202.808594 72.742188 202.375 C 72.75 201.941406 72.867188 201.539062 73.09375 201.167969 C 74.144531 199.4375 75.230469 197.6875 76.324219 195.972656 C 77.867188 193.570312 79.492188 191.167969 81.160156 188.886719 C 81.351562 188.640625 81.582031 188.4375 81.851562 188.28125 C 82.125 188.121094 82.414062 188.019531 82.726562 187.976562 C 83.035156 187.933594 83.34375 187.949219 83.644531 188.023438 C 83.949219 188.101562 84.226562 188.230469 84.480469 188.414062 C 84.734375 188.601562 84.941406 188.828125 85.109375 189.09375 C 85.273438 189.359375 85.378906 189.648438 85.433594 189.957031 C 85.484375 190.265625 85.476562 190.574219 85.410156 190.878906 C 85.339844 191.183594 85.21875 191.464844 85.039062 191.722656 C 83.433594 193.917969 81.867188 196.214844 80.378906 198.550781 C 79.300781 200.242188 78.234375 201.964844 77.195312 203.664062 C 76.976562 204.023438 76.6875 204.304688 76.320312 204.511719 C 75.957031 204.714844 75.5625 204.820312 75.144531 204.820312 Z M 69.179688 203.671875 C 68.703125 203.671875 68.265625 203.546875 67.867188 203.289062 C 67.46875 203.03125 67.167969 202.6875 66.972656 202.253906 C 64.933594 197.691406 63.34375 192.976562 62.203125 188.109375 C 62.121094 187.796875 62.101562 187.476562 62.144531 187.15625 C 62.191406 186.835938 62.296875 186.535156 62.464844 186.257812 C 62.628906 185.980469 62.84375 185.742188 63.105469 185.550781 C 63.367188 185.359375 63.65625 185.226562 63.972656 185.152344 C 64.289062 185.078125 64.609375 185.070312 64.929688 185.125 C 65.25 185.179688 65.546875 185.292969 65.820312 185.46875 C 66.09375 185.640625 66.320312 185.863281 66.503906 186.132812 C 66.6875 186.398438 66.8125 186.691406 66.878906 187.007812 C 67.949219 191.574219 69.441406 196 71.355469 200.28125 C 71.4375 200.464844 71.496094 200.65625 71.53125 200.851562 C 71.566406 201.050781 71.578125 201.25 71.5625 201.449219 C 71.546875 201.648438 71.507812 201.84375 71.441406 202.035156 C 71.378906 202.222656 71.292969 202.402344 71.183594 202.570312 C 71.074219 202.742188 70.945312 202.894531 70.800781 203.03125 C 70.652344 203.164062 70.492188 203.28125 70.3125 203.378906 C 70.136719 203.472656 69.953125 203.546875 69.757812 203.597656 C 69.5625 203.644531 69.367188 203.671875 69.164062 203.671875 Z M 163.847656 200.195312 L 163.792969 200.195312 C 163.472656 200.1875 163.167969 200.121094 162.878906 199.992188 C 162.585938 199.863281 162.332031 199.683594 162.109375 199.453125 C 161.890625 199.222656 161.722656 198.960938 161.609375 198.664062 C 161.492188 198.367188 161.441406 198.058594 161.445312 197.738281 C 161.445312 197.421875 161.445312 197.101562 161.445312 196.777344 C 161.460938 192.496094 160.820312 188.316406 159.527344 184.230469 C 159.457031 183.933594 159.4375 183.632812 159.480469 183.332031 C 159.519531 183.027344 159.613281 182.742188 159.765625 182.476562 C 159.914062 182.210938 160.105469 181.980469 160.34375 181.785156 C 160.582031 181.59375 160.847656 181.449219 161.136719 181.359375 C 161.429688 181.265625 161.730469 181.230469 162.035156 181.253906 C 162.339844 181.277344 162.628906 181.351562 162.90625 181.488281 C 163.179688 181.621094 163.421875 181.796875 163.628906 182.023438 C 163.835938 182.25 163.996094 182.503906 164.105469 182.789062 C 165.558594 187.34375 166.285156 192.007812 166.285156 196.789062 C 166.285156 197.144531 166.285156 197.5 166.285156 197.855469 C 166.277344 198.167969 166.210938 198.472656 166.082031 198.757812 C 165.957031 199.046875 165.78125 199.300781 165.554688 199.519531 C 165.328125 199.738281 165.070312 199.90625 164.777344 200.023438 C 164.488281 200.140625 164.183594 200.199219 163.867188 200.195312 Z M 92.34375 181.558594 C 91.707031 181.5625 91.15625 181.34375 90.695312 180.902344 C 90.464844 180.683594 90.28125 180.425781 90.152344 180.136719 C 90.019531 179.847656 89.953125 179.542969 89.941406 179.222656 C 89.933594 178.902344 89.984375 178.597656 90.101562 178.296875 C 90.214844 178 90.378906 177.734375 90.597656 177.503906 C 94.003906 173.875 97.6875 170.554688 101.652344 167.546875 C 101.90625 167.355469 102.1875 167.21875 102.496094 167.140625 C 102.804688 167.0625 103.117188 167.046875 103.433594 167.089844 C 103.75 167.136719 104.042969 167.238281 104.316406 167.402344 C 104.589844 167.5625 104.824219 167.773438 105.015625 168.027344 C 105.207031 168.28125 105.339844 168.5625 105.421875 168.871094 C 105.5 169.179688 105.515625 169.492188 105.472656 169.808594 C 105.425781 170.125 105.324219 170.417969 105.160156 170.691406 C 105 170.96875 104.789062 171.199219 104.535156 171.390625 C 100.785156 174.234375 97.304688 177.375 94.085938 180.808594 C 93.613281 181.308594 93.03125 181.558594 92.34375 181.558594 Z M 62.519531 175.632812 C 62.210938 175.636719 61.914062 175.578125 61.628906 175.464844 C 61.34375 175.351562 61.085938 175.1875 60.863281 174.976562 C 60.640625 174.761719 60.464844 174.519531 60.335938 174.238281 C 60.207031 173.957031 60.132812 173.664062 60.117188 173.355469 C 60.042969 171.914062 60.007812 170.472656 60.007812 169.0625 C 60.007812 166.917969 60.09375 164.734375 60.257812 162.640625 C 60.367188 161.261719 60.507812 159.859375 60.679688 158.480469 C 60.707031 158.15625 60.800781 157.847656 60.953125 157.5625 C 61.105469 157.273438 61.308594 157.03125 61.5625 156.824219 C 61.816406 156.621094 62.097656 156.472656 62.410156 156.382812 C 62.726562 156.292969 63.042969 156.269531 63.367188 156.308594 C 63.6875 156.347656 63.992188 156.449219 64.273438 156.613281 C 64.554688 156.777344 64.792969 156.988281 64.988281 157.246094 C 65.1875 157.507812 65.324219 157.792969 65.402344 158.109375 C 65.480469 158.425781 65.496094 158.742188 65.445312 159.066406 C 65.289062 160.375 65.152344 161.703125 65.046875 163.015625 C 64.894531 165.007812 64.8125 167.042969 64.8125 169.0625 C 64.8125 170.402344 64.851562 171.765625 64.917969 173.105469 C 64.933594 173.425781 64.890625 173.734375 64.78125 174.03125 C 64.675781 174.332031 64.515625 174.601562 64.304688 174.835938 C 64.09375 175.074219 63.84375 175.261719 63.554688 175.398438 C 63.269531 175.535156 62.96875 175.613281 62.648438 175.628906 Z M 155.054688 173.179688 C 154.289062 173.179688 153.667969 172.882812 153.1875 172.289062 C 150.363281 168.738281 146.890625 166.015625 142.765625 164.121094 C 142.476562 163.988281 142.222656 163.808594 142.003906 163.574219 C 141.789062 163.34375 141.621094 163.078125 141.511719 162.777344 C 141.398438 162.480469 141.347656 162.171875 141.355469 161.855469 C 141.367188 161.535156 141.4375 161.230469 141.570312 160.941406 C 141.699219 160.648438 141.882812 160.394531 142.113281 160.175781 C 142.347656 159.960938 142.609375 159.792969 142.910156 159.679688 C 143.207031 159.570312 143.515625 159.515625 143.832031 159.527344 C 144.152344 159.535156 144.457031 159.605469 144.746094 159.738281 C 149.5625 161.945312 153.621094 165.125 156.917969 169.273438 C 157.210938 169.632812 157.382812 170.042969 157.4375 170.5 C 157.492188 170.960938 157.417969 171.398438 157.21875 171.816406 C 157.019531 172.230469 156.726562 172.5625 156.335938 172.8125 C 155.945312 173.058594 155.515625 173.183594 155.054688 173.183594 Z M 115.59375 164.601562 C 115.3125 164.601562 115.042969 164.554688 114.78125 164.460938 C 114.515625 164.367188 114.277344 164.234375 114.0625 164.054688 C 113.847656 163.878906 113.667969 163.671875 113.523438 163.433594 C 113.382812 163.191406 113.28125 162.9375 113.230469 162.664062 C 113.175781 162.390625 113.167969 162.117188 113.210938 161.839844 C 113.253906 161.5625 113.339844 161.304688 113.472656 161.058594 C 113.601562 160.8125 113.773438 160.597656 113.980469 160.410156 C 114.1875 160.222656 114.421875 160.078125 114.679688 159.972656 C 119.453125 157.957031 124.429688 156.875 129.609375 156.730469 C 129.929688 156.722656 130.234375 156.777344 130.53125 156.894531 C 130.828125 157.011719 131.09375 157.179688 131.324219 157.398438 C 131.554688 157.621094 131.730469 157.875 131.859375 158.167969 C 131.988281 158.460938 132.054688 158.765625 132.0625 159.085938 C 132.066406 159.402344 132.011719 159.710938 131.894531 160.007812 C 131.78125 160.304688 131.613281 160.566406 131.390625 160.796875 C 131.171875 161.027344 130.914062 161.207031 130.621094 161.332031 C 130.328125 161.460938 130.023438 161.527344 129.707031 161.535156 C 125.125 161.667969 120.726562 162.628906 116.503906 164.417969 C 116.214844 164.546875 115.910156 164.613281 115.59375 164.617188 Z M 65.921875 146.984375 C 65.703125 146.984375 65.488281 146.953125 65.277344 146.898438 C 64.972656 146.8125 64.691406 146.671875 64.441406 146.476562 C 64.191406 146.28125 63.988281 146.042969 63.832031 145.765625 C 63.671875 145.488281 63.574219 145.191406 63.535156 144.875 C 63.496094 144.558594 63.519531 144.25 63.605469 143.941406 C 64.933594 139.183594 66.558594 134.53125 68.480469 129.980469 C 68.601562 129.6875 68.777344 129.429688 69.003906 129.203125 C 69.230469 128.980469 69.492188 128.808594 69.785156 128.6875 C 70.082031 128.566406 70.390625 128.507812 70.707031 128.507812 C 71.027344 128.511719 71.332031 128.574219 71.628906 128.695312 C 71.921875 128.820312 72.179688 128.996094 72.40625 129.222656 C 72.628906 129.449219 72.800781 129.710938 72.921875 130.003906 C 73.042969 130.300781 73.101562 130.609375 73.097656 130.925781 C 73.097656 131.246094 73.035156 131.550781 72.910156 131.847656 C 71.066406 136.207031 69.507812 140.667969 68.234375 145.226562 C 68.164062 145.476562 68.054688 145.710938 67.90625 145.929688 C 67.761719 146.148438 67.582031 146.335938 67.375 146.492188 C 67.164062 146.652344 66.9375 146.773438 66.6875 146.855469 C 66.441406 146.941406 66.183594 146.984375 65.921875 146.984375 Z M 77.066406 120.316406 C 76.855469 120.316406 76.652344 120.292969 76.449219 120.238281 C 76.246094 120.183594 76.054688 120.105469 75.875 120 C 75.691406 119.898438 75.527344 119.773438 75.378906 119.625 C 75.226562 119.476562 75.101562 119.3125 74.996094 119.132812 C 74.890625 118.953125 74.808594 118.761719 74.75 118.558594 C 74.695312 118.359375 74.664062 118.152344 74.664062 117.945312 C 74.660156 117.734375 74.683594 117.527344 74.738281 117.324219 C 74.789062 117.125 74.863281 116.929688 74.964844 116.746094 C 77.261719 112.59375 79.863281 108.386719 82.683594 104.253906 C 82.863281 103.996094 83.089844 103.78125 83.355469 103.609375 C 83.621094 103.441406 83.90625 103.328125 84.21875 103.269531 C 84.527344 103.214844 84.839844 103.21875 85.148438 103.28125 C 85.457031 103.347656 85.738281 103.46875 86 103.644531 C 86.261719 103.824219 86.480469 104.042969 86.652344 104.304688 C 86.828125 104.570312 86.945312 104.855469 87.007812 105.164062 C 87.070312 105.476562 87.070312 105.785156 87.007812 106.09375 C 86.949219 106.402344 86.832031 106.691406 86.65625 106.953125 C 83.917969 110.984375 81.394531 115.070312 79.167969 119.097656 C 78.953125 119.476562 78.65625 119.773438 78.28125 119.992188 C 77.90625 120.210938 77.5 120.320312 77.066406 120.316406 Z M 93.28125 96.339844 C 92.820312 96.335938 92.394531 96.214844 92.003906 95.96875 C 91.613281 95.722656 91.316406 95.390625 91.117188 94.976562 C 90.917969 94.558594 90.84375 94.121094 90.894531 93.664062 C 90.949219 93.207031 91.117188 92.796875 91.40625 92.4375 C 94.4375 88.648438 97.652344 84.921875 101.015625 81.351562 C 101.234375 81.117188 101.488281 80.933594 101.777344 80.800781 C 102.070312 80.671875 102.375 80.597656 102.691406 80.589844 C 103.011719 80.578125 103.320312 80.628906 103.617188 80.738281 C 103.914062 80.851562 104.179688 81.015625 104.414062 81.234375 C 104.648438 81.453125 104.828125 81.707031 104.960938 81.996094 C 105.09375 82.285156 105.164062 82.589844 105.175781 82.910156 C 105.1875 83.226562 105.136719 83.535156 105.023438 83.835938 C 104.914062 84.132812 104.746094 84.398438 104.53125 84.632812 C 101.273438 88.109375 98.125 91.75 95.164062 95.441406 C 94.671875 96.042969 94.035156 96.339844 93.257812 96.324219 Z M 113.050781 75.195312 C 112.554688 75.195312 112.105469 75.054688 111.695312 74.773438 C 111.285156 74.496094 110.992188 74.125 110.8125 73.664062 C 110.632812 73.203125 110.601562 72.730469 110.710938 72.25 C 110.824219 71.765625 111.0625 71.359375 111.425781 71.023438 C 114.992188 67.746094 118.738281 64.542969 122.574219 61.507812 C 122.824219 61.296875 123.101562 61.140625 123.414062 61.042969 C 123.722656 60.945312 124.042969 60.914062 124.367188 60.945312 C 124.691406 60.976562 124.996094 61.070312 125.28125 61.226562 C 125.570312 61.382812 125.8125 61.585938 126.015625 61.84375 C 126.21875 62.097656 126.363281 62.382812 126.449219 62.699219 C 126.535156 63.011719 126.558594 63.332031 126.515625 63.652344 C 126.472656 63.976562 126.367188 64.277344 126.203125 64.558594 C 126.035156 64.839844 125.820312 65.078125 125.558594 65.269531 C 121.820312 68.234375 118.160156 71.363281 114.679688 74.558594 C 114.210938 74.988281 113.660156 75.199219 113.027344 75.1875 Z M 135.695312 57.203125 C 135.167969 57.203125 134.691406 57.046875 134.265625 56.734375 C 133.84375 56.421875 133.554688 56.011719 133.398438 55.507812 C 133.242188 55.003906 133.25 54.503906 133.425781 54.007812 C 133.597656 53.507812 133.902344 53.113281 134.339844 52.816406 C 138.335938 50.082031 142.507812 47.445312 146.71875 44.976562 C 146.992188 44.785156 147.296875 44.65625 147.625 44.589844 C 147.957031 44.523438 148.285156 44.527344 148.613281 44.601562 C 148.941406 44.675781 149.238281 44.808594 149.511719 45.007812 C 149.78125 45.207031 150.003906 45.449219 150.171875 45.742188 C 150.339844 46.03125 150.441406 46.34375 150.480469 46.679688 C 150.519531 47.011719 150.488281 47.339844 150.386719 47.660156 C 150.285156 47.980469 150.125 48.269531 149.90625 48.523438 C 149.6875 48.777344 149.425781 48.976562 149.121094 49.117188 C 145.003906 51.523438 140.949219 54.113281 137.023438 56.808594 C 136.621094 57.070312 136.175781 57.203125 135.695312 57.203125 Z M 160.683594 42.554688 C 160.410156 42.554688 160.148438 42.511719 159.890625 42.421875 C 159.632812 42.335938 159.398438 42.207031 159.1875 42.039062 C 158.972656 41.871094 158.792969 41.671875 158.648438 41.445312 C 158.5 41.214844 158.398438 40.96875 158.335938 40.703125 C 158.273438 40.441406 158.253906 40.171875 158.285156 39.902344 C 158.3125 39.632812 158.382812 39.375 158.5 39.128906 C 158.613281 38.882812 158.765625 38.664062 158.957031 38.46875 C 159.144531 38.277344 159.363281 38.121094 159.605469 38 C 163.929688 35.835938 168.417969 33.785156 172.917969 31.894531 C 173.210938 31.773438 173.519531 31.710938 173.835938 31.707031 C 174.15625 31.707031 174.464844 31.765625 174.757812 31.886719 C 175.054688 32.007812 175.316406 32.179688 175.542969 32.402344 C 175.769531 32.628906 175.945312 32.886719 176.070312 33.183594 C 176.191406 33.476562 176.253906 33.785156 176.253906 34.101562 C 176.257812 34.421875 176.195312 34.730469 176.074219 35.023438 C 175.953125 35.320312 175.78125 35.582031 175.554688 35.808594 C 175.332031 36.035156 175.070312 36.207031 174.777344 36.332031 C 170.375 38.175781 165.992188 40.175781 161.75 42.300781 C 161.414062 42.46875 161.058594 42.554688 160.683594 42.554688 Z M 343.183594 35.261719 C 342.847656 35.261719 342.527344 35.195312 342.222656 35.0625 C 337.898438 33.199219 333.382812 31.46875 328.871094 29.921875 C 328.574219 29.816406 328.304688 29.65625 328.070312 29.445312 C 327.835938 29.234375 327.648438 28.988281 327.511719 28.703125 C 327.375 28.417969 327.292969 28.117188 327.277344 27.800781 C 327.257812 27.484375 327.296875 27.175781 327.402344 26.878906 C 327.503906 26.578125 327.660156 26.308594 327.867188 26.070312 C 328.078125 25.832031 328.324219 25.644531 328.605469 25.503906 C 328.890625 25.363281 329.1875 25.28125 329.503906 25.257812 C 329.820312 25.238281 330.128906 25.277344 330.429688 25.375 C 335.054688 26.964844 339.660156 28.738281 344.113281 30.660156 C 344.371094 30.769531 344.601562 30.917969 344.804688 31.105469 C 345.007812 31.296875 345.175781 31.511719 345.304688 31.757812 C 345.433594 32.003906 345.515625 32.265625 345.554688 32.542969 C 345.589844 32.816406 345.582031 33.089844 345.527344 33.363281 C 345.46875 33.632812 345.367188 33.886719 345.222656 34.125 C 345.078125 34.363281 344.898438 34.566406 344.683594 34.742188 C 344.464844 34.917969 344.226562 35.050781 343.964844 35.140625 C 343.703125 35.230469 343.429688 35.277344 343.152344 35.273438 Z M 187.386719 31.367188 C 187.101562 31.367188 186.828125 31.320312 186.558594 31.222656 C 186.292969 31.125 186.050781 30.984375 185.832031 30.800781 C 185.613281 30.617188 185.433594 30.402344 185.292969 30.152344 C 185.152344 29.90625 185.058594 29.640625 185.011719 29.363281 C 184.964844 29.082031 184.96875 28.800781 185.019531 28.519531 C 185.074219 28.242188 185.171875 27.980469 185.320312 27.734375 C 185.464844 27.488281 185.648438 27.277344 185.867188 27.097656 C 186.089844 26.917969 186.335938 26.785156 186.605469 26.691406 C 191.1875 25.109375 195.894531 23.65625 200.585938 22.367188 C 200.894531 22.28125 201.207031 22.257812 201.523438 22.296875 C 201.839844 22.335938 202.136719 22.433594 202.414062 22.59375 C 202.691406 22.75 202.929688 22.953125 203.125 23.203125 C 203.320312 23.457031 203.460938 23.734375 203.546875 24.042969 C 203.628906 24.351562 203.652344 24.664062 203.613281 24.980469 C 203.574219 25.296875 203.476562 25.59375 203.320312 25.867188 C 203.160156 26.144531 202.957031 26.382812 202.703125 26.578125 C 202.453125 26.773438 202.171875 26.914062 201.867188 27 C 197.265625 28.261719 192.660156 29.691406 188.171875 31.238281 C 187.914062 31.320312 187.65625 31.359375 187.386719 31.351562 Z M 315.808594 25.839844 C 315.601562 25.839844 315.398438 25.8125 315.195312 25.757812 C 310.625 24.554688 305.925781 23.492188 301.230469 22.597656 C 300.910156 22.546875 300.609375 22.4375 300.332031 22.265625 C 300.054688 22.09375 299.824219 21.875 299.636719 21.609375 C 299.449219 21.34375 299.320312 21.050781 299.25 20.734375 C 299.183594 20.414062 299.179688 20.09375 299.238281 19.777344 C 299.300781 19.457031 299.421875 19.160156 299.601562 18.890625 C 299.78125 18.621094 300.007812 18.394531 300.277344 18.214844 C 300.550781 18.035156 300.847656 17.917969 301.167969 17.859375 C 301.488281 17.800781 301.804688 17.808594 302.125 17.878906 C 306.929688 18.792969 311.734375 19.878906 316.421875 21.113281 C 316.703125 21.1875 316.964844 21.308594 317.203125 21.476562 C 317.441406 21.644531 317.644531 21.851562 317.808594 22.09375 C 317.972656 22.335938 318.089844 22.597656 318.15625 22.882812 C 318.222656 23.167969 318.238281 23.457031 318.199219 23.746094 C 318.164062 24.035156 318.074219 24.308594 317.9375 24.570312 C 317.800781 24.828125 317.621094 25.050781 317.402344 25.246094 C 317.179688 25.4375 316.933594 25.585938 316.660156 25.6875 C 316.386719 25.789062 316.101562 25.84375 315.808594 25.839844 Z M 215.308594 23.667969 C 215.011719 23.667969 214.726562 23.609375 214.449219 23.503906 C 214.175781 23.394531 213.925781 23.242188 213.707031 23.042969 C 213.488281 22.84375 213.3125 22.609375 213.179688 22.347656 C 213.046875 22.082031 212.964844 21.800781 212.9375 21.507812 C 212.90625 21.214844 212.929688 20.921875 213.007812 20.636719 C 213.085938 20.351562 213.210938 20.089844 213.386719 19.851562 C 213.558594 19.613281 213.773438 19.410156 214.019531 19.25 C 214.269531 19.089844 214.539062 18.976562 214.828125 18.917969 C 219.585938 17.925781 224.4375 17.074219 229.242188 16.386719 C 229.558594 16.34375 229.871094 16.359375 230.183594 16.4375 C 230.492188 16.515625 230.773438 16.648438 231.03125 16.839844 C 231.285156 17.03125 231.496094 17.265625 231.660156 17.539062 C 231.820312 17.816406 231.925781 18.109375 231.972656 18.425781 C 232.015625 18.742188 232 19.054688 231.917969 19.367188 C 231.839844 19.675781 231.703125 19.957031 231.511719 20.210938 C 231.320312 20.46875 231.085938 20.675781 230.808594 20.835938 C 230.535156 21 230.238281 21.101562 229.921875 21.144531 C 225.214844 21.820312 220.464844 22.648438 215.800781 23.621094 C 215.640625 23.652344 215.472656 23.671875 215.308594 23.667969 Z M 287.390625 20.433594 C 287.292969 20.441406 287.199219 20.441406 287.101562 20.433594 C 282.398438 19.871094 277.597656 19.472656 272.828125 19.214844 C 272.511719 19.199219 272.207031 19.121094 271.917969 18.984375 C 271.632812 18.847656 271.378906 18.660156 271.167969 18.421875 C 270.953125 18.183594 270.792969 17.917969 270.6875 17.617188 C 270.578125 17.316406 270.535156 17.003906 270.550781 16.6875 C 270.566406 16.367188 270.644531 16.0625 270.78125 15.777344 C 270.917969 15.488281 271.105469 15.238281 271.34375 15.023438 C 271.582031 14.808594 271.847656 14.648438 272.148438 14.542969 C 272.449219 14.4375 272.761719 14.390625 273.078125 14.410156 C 277.9375 14.648438 282.839844 15.078125 287.648438 15.644531 C 287.96875 15.664062 288.269531 15.742188 288.558594 15.878906 C 288.847656 16.019531 289.09375 16.210938 289.308594 16.449219 C 289.519531 16.6875 289.675781 16.957031 289.78125 17.257812 C 289.886719 17.558594 289.929688 17.871094 289.910156 18.1875 C 289.890625 18.507812 289.8125 18.808594 289.671875 19.097656 C 289.535156 19.382812 289.34375 19.632812 289.105469 19.84375 C 288.867188 20.058594 288.597656 20.214844 288.296875 20.320312 C 287.996094 20.425781 287.683594 20.46875 287.367188 20.449219 Z M 244 19.585938 C 243.683594 19.597656 243.375 19.546875 243.074219 19.4375 C 242.773438 19.328125 242.507812 19.164062 242.273438 18.945312 C 242.039062 18.730469 241.855469 18.476562 241.722656 18.1875 C 241.589844 17.898438 241.515625 17.59375 241.503906 17.273438 C 241.492188 16.957031 241.542969 16.648438 241.652344 16.347656 C 241.761719 16.050781 241.925781 15.78125 242.140625 15.546875 C 242.359375 15.316406 242.613281 15.128906 242.902344 14.996094 C 243.191406 14.863281 243.496094 14.792969 243.8125 14.777344 C 248.625 14.410156 253.5625 14.183594 258.417969 14.117188 C 258.738281 14.109375 259.042969 14.167969 259.339844 14.285156 C 259.636719 14.40625 259.898438 14.574219 260.125 14.796875 C 260.355469 15.019531 260.53125 15.277344 260.65625 15.570312 C 260.78125 15.863281 260.847656 16.167969 260.851562 16.488281 C 260.855469 16.804688 260.800781 17.113281 260.679688 17.410156 C 260.5625 17.703125 260.390625 17.96875 260.171875 18.195312 C 259.949219 18.421875 259.691406 18.601562 259.398438 18.726562 C 259.105469 18.851562 258.796875 18.917969 258.480469 18.921875 C 253.730469 18.984375 248.917969 19.203125 244.164062 19.574219 Z M 244 19.585938 " fill-opacity="1" fill-rule="nonzero"/></g><path fill="#ffffff" d="M 31.773438 334.304688 C 31.691406 334.308594 31.609375 334.308594 31.527344 334.304688 C 31.210938 334.273438 30.914062 334.179688 30.632812 334.027344 C 30.351562 333.878906 30.109375 333.679688 29.910156 333.433594 C 29.707031 333.183594 29.5625 332.910156 29.46875 332.605469 C 29.378906 332.296875 29.347656 331.988281 29.378906 331.671875 C 29.621094 329.269531 29.894531 326.863281 30.199219 324.460938 C 30.222656 324.136719 30.3125 323.828125 30.460938 323.535156 C 30.613281 323.246094 30.816406 322.996094 31.070312 322.789062 C 31.324219 322.582031 31.605469 322.433594 31.921875 322.339844 C 32.234375 322.25 32.554688 322.222656 32.878906 322.261719 C 33.203125 322.300781 33.507812 322.402344 33.792969 322.566406 C 34.078125 322.730469 34.316406 322.941406 34.511719 323.203125 C 34.710938 323.464844 34.847656 323.753906 34.925781 324.074219 C 35.003906 324.390625 35.015625 324.710938 34.964844 325.035156 C 34.671875 327.398438 34.398438 329.785156 34.164062 332.140625 C 34.132812 332.4375 34.050781 332.71875 33.917969 332.984375 C 33.78125 333.25 33.605469 333.484375 33.382812 333.683594 C 33.164062 333.882812 32.914062 334.035156 32.636719 334.144531 C 32.359375 334.25 32.070312 334.304688 31.773438 334.304688 Z M 31.773438 334.304688 " fill-opacity="1" fill-rule="nonzero"/><g clip-path="url(#fe68a5c02c)"><path fill="#ffffff" d="M 30.226562 360.863281 C 25.964844 346.929688 18.320312 329.546875 9.789062 318.535156 L 32.125 328.113281 L 55.441406 321.191406 C 45.671875 331.132812 36.070312 347.535156 30.226562 360.863281 Z M 30.226562 360.863281 " fill-opacity="1" fill-rule="nonzero"/></g></svg>